<?xml version="1.0" encoding="UTF-8" standalone="no"?>
<svg
   xmlns:dc="http://purl.org/dc/elements/1.1/"
   xmlns:cc="http://creativecommons.org/ns#"
   xmlns:rdf="http://www.w3.org/1999/02/22-rdf-syntax-ns#"
   xmlns:svg="http://www.w3.org/2000/svg"
   xmlns="http://www.w3.org/2000/svg"
   viewBox="0 0 117.6 117.6"
   height="117.6"
   width="117.6"
   version="1.1"
   id="svg4758">
  <metadata
     id="metadata4764">
    <rdf:RDF>
      <cc:Work
         rdf:about="">
        <dc:format>image/svg+xml</dc:format>
        <dc:type
           rdf:resource="http://purl.org/dc/dcmitype/StillImage" />
        <dc:title></dc:title>
      </cc:Work>
    </rdf:RDF>
  </metadata>
  <defs
     id="defs4762" />
  <path
     id="path5308"
     d="M 54.131749,117.33558 C 4.1468747,113.20109 -18.103,52.891649 17.282161,17.45286 40.000123,-5.2995296 76.045025,-5.7718349 99.102955,16.380742 135.91163,51.744143 113.97462,112.89794 62.882161,117.35346 c -3.811377,0.33237 -4.533852,0.3309 -8.750412,-0.0179 z m 10.100416,-1.63654 C 95.908865,113.35931 120.31487,82.033112 115.23144,50.239154 107.7353,3.3549443 50.166436,-14.820322 17.377458,19.345328 -15.863573,53.982011 6.6423157,112.51262 54.482161,115.84279 c 3.382269,0.23544 4.924047,0.21271 9.750004,-0.14375 z M 53.282161,114.47798 C 13.960729,109.86963 -8.6642573,69.217013 8.5657387,34.131437 25.195941,0.26722226 70.448055,-7.6258721 97.477735,18.622972 128.49281,48.742079 115.1896,101.00025 73.532165,112.68687 c -5.42642,1.52233 -15.181276,2.38515 -20.250004,1.79111 z m 11.759634,-3.86609 C 106.78158,105.10191 125.43539,56.022173 97.847405,24.297578 80.940865,4.8560283 51.409579,0.95024728 29.882161,15.308556 5.6790697,31.45148 -0.80667026,63.740837 15.321272,87.800168 26.37172,104.28499 45.720952,113.1624 65.041795,110.61189 Z m -7.859634,-3.03433 c -2.147979,-0.38974 -2.161182,-0.39801 -5.259018,-3.29355 -0.368025,-0.34399 -1.260945,-0.97227 -1.984266,-1.39616 -2.469147,-1.44702 -4.447623,-3.871992 -4.516227,-5.535442 -0.03273,-0.79362 -0.102483,-2.05046 -0.15501,-2.79296 -0.05253,-0.7425 -0.147084,-2.7 -0.210129,-4.35 -0.148539,-3.88751 -0.367365,-4.80448 -1.241583,-5.20281 -1.059801,-0.482872 -1.5873,-1.785895 -2.549256,-6.297136 -1.379952,-6.471489 -3.15672,-10.496805 -7.50378,-17.000049 -2.535261,-3.792771 -2.945739,-4.610973 -3.183501,-6.345618 -0.155253,-1.132701 -0.439842,-1.643895 -1.464256,-2.630172 -1.841157,-1.772613 -2.691918,-5.104854 -1.959319,-7.67421 0.149485,-0.524268 -0.0064,-1.192266 -0.518018,-2.219451 -0.951398,-1.910235 -1.189511,-4.695144 -0.569814,-6.664419 0.253751,-0.80637 0.529427,-2.227191 0.612612,-3.157374 0.172607,-1.93011 0.710691,-3.119922 2.126301,-4.701677 0.732738,-0.818738 1.031207,-1.477725 1.145962,-2.530164 0.182322,-1.672121 1.238307,-3.21132 3.006279,-4.381941 0.660351,-0.437236 1.486923,-1.117472 1.836831,-1.511636 2.588994,-2.916465 3.635928,-3.903239 5.036559,-4.747158 1.753638,-1.056612 5.062386,-2.031276 6.033546,-1.777312 0.346785,0.09069 0.954351,-0.07768 1.390917,-0.385449 3.006423,-2.119438 6.864345,-3.1976599 10.22517,-2.857755 1.2375,0.125157 3.435741,0.196715 4.884981,0.159017 2.223553,-0.05784 2.855923,0.03875 4.050003,0.618604 0.77826,0.377931 1.72902,0.646794 2.1128,0.597475 1.76847,-0.227263 5.34706,1.106001 6.61489,2.464483 0.39197,0.419998 1.13447,0.852813 1.65,0.96181 1.59966,0.338215 3.08827,1.353291 3.77409,2.573533 0.39296,0.699177 1.04965,1.333707 1.63218,1.577105 2.19909,0.918839 4.41938,3.645418 4.8394,5.942913 0.12896,0.705428 0.47575,1.289298 0.95058,1.600414 1.21172,0.793955 2.2734,3.499849 2.34084,5.96611 0.0405,1.479591 0.26502,2.570358 0.74106,3.599601 0.59047,1.276632 0.65345,1.74411 0.4648,3.45 -0.12002,1.085298 -0.23788,3.525771 -0.26192,5.423271 -0.0435,3.434853 -0.80367,6.014517 -1.988,6.746475 -0.16814,0.103914 -0.3057,0.624924 -0.3057,1.157799 0,1.419297 -0.60412,2.495229 -6.25815,11.145726 -2.92273,4.471686 -4.94046,9.497448 -6.02458,15.006057 -0.82207,4.17708 -1.06304,4.773126 -2.36282,5.844518 -1.00058,0.82476 -1.06812,0.99449 -1.1591,2.91261 -0.10432,2.19929 -0.23959,4.29833 -0.45992,7.13681 -0.0768,0.99 -0.16126,2.24878 -0.18758,2.79728 -0.0537,1.11873 -2.75149,4.232322 -4.39785,5.075642 -0.495,0.25356 -1.7775,1.23216 -2.85,2.17467 -2.703694,2.37601 -4.984672,3.08579 -8.100004,2.52052 z m 4.264161,-1.93089 c 2.018385,-0.56057 1.427919,-0.73722 -2.464161,-0.73722 -2.113488,0 -3.781449,0.0991 -3.706584,0.22025 0.447366,0.72385 4.272093,1.04428 6.170745,0.51697 z m 0.896721,-2.68994 c 1.848172,-0.26731 4.601932,-1.13447 4.362612,-1.37379 -0.0558,-0.0558 -0.82053,0.0883 -1.69947,0.32017 -3.993,1.05334 -8.822103,0.8431 -13.020342,-0.56685 -2.737962,-0.91952 -2.9412,-0.74338 -0.473481,0.41035 2.985699,1.3959 6.68691,1.80944 10.830681,1.21012 z m 2.959942,-2.21264 c 2.5165,-0.54987 4.69175,-1.572322 5.2911,-2.487042 0.68172,-1.04045 0.3795,-1.09709 -1.44124,-0.27013 -4.62865,2.102282 -14.173641,2.164542 -18.918417,0.1234 -1.876176,-0.80711 -1.728498,-0.95695 0.361683,-0.36698 6.29145,1.77582 20.733164,0.0239 20.681454,-2.50889 -0.0183,-0.89787 -0.54184,-0.9873 -2.12216,-0.36254 -5.14396,2.0336 -13.8457,2.02729 -19.268944,-0.014 -2.196348,-0.82669 -2.074719,-1.01728 0.258471,-0.40501 5.452611,1.43085 17.392593,0.69111 20.373813,-1.26226 1.46097,-0.95726 0.85705,-2.6053 -0.66608,-1.81766 -4.54648,2.35107 -15.007531,2.36237 -20.608225,0.0223 -1.708161,-0.71372 -1.168242,-0.74248 1.337721,-0.0713 6.734739,1.80389 20.990814,0.0282 20.990814,-2.61454 0,-0.91858 -0.48215,-1.03365 -1.96705,-0.46943 -5.5332,2.10245 -15.707996,2.09784 -20.073764,-0.009 -0.66,-0.31852 -0.972168,-0.51737 -0.693705,-0.4419 7.278768,1.9729 22.153269,0.66065 22.853269,-2.01615 0.21795,-0.83345 0.12884,-0.88922 -0.83517,-0.5227 -3.53268,1.34313 -16.130458,1.53174 -21.774394,0.32602 -1.5675,-0.33487 -2.882658,-0.61063 -2.92257,-0.61279 -0.03992,-0.002 0.146772,0.54425 0.414858,1.21426 0.384564,0.96112 0.415908,1.37518 0.148527,1.96202 -0.271185,0.59519 -0.242052,0.89161 0.145806,1.48356 0.404016,0.61661 0.424017,0.88627 0.120147,1.61988 -0.200508,0.48406 -0.25989,1.04948 -0.131958,1.25647 0.127929,0.207 0.273726,1.5989 0.323991,3.09311 0.08942,2.65802 0.112575,2.73418 1.071294,3.52267 2.594847,2.134122 11.044023,2.941202 17.050729,1.628722 z m 1.47918,-15.617082 c 6.64515,-0.887573 7.16567,-1.355489 8.52958,-7.667555 1.21885,-5.640723 2.76292,-9.430074 5.63477,-13.828407 1.69658,-2.598372 3.6711,-5.809371 5.10364,-8.299635 0.8614,-1.497414 1.08954,-3.048234 0.45701,-3.106503 -0.77819,-0.07169 -1.60417,0.111918 -2.475,0.550167 -0.68051,0.342465 -0.80519,0.353109 -0.51123,0.04365 0.21383,-0.225099 1.22633,-0.814272 2.25,-1.309272 5.2971,-2.56143 4.50793,-10.911039 -1.04521,-11.058519 -1.56191,-0.04148 -1.56191,-0.04148 -2.27871,2.459625 -0.87118,3.03981 -0.73865,4.108461 0.47398,3.821781 0.44614,-0.105474 1.41867,-0.255468 2.16117,-0.333321 1.35,-0.141552 1.35,-0.141552 0.12227,0.318684 -1.55276,0.582078 -2.60779,1.719234 -3.19318,3.44175 -0.25234,0.7425 -0.73538,2.0925 -1.07343,3 -0.47629,1.278585 -0.57653,2.063442 -0.44535,3.486708 0.32706,3.548376 -0.91663,6.578859 -2.91433,7.101267 -0.50174,0.131208 -0.41441,-0.06624 0.45492,-1.028478 1.2926,-1.430751 1.6491,-2.287311 1.6491,-3.962274 0,-3.466062 -3.16697,-3.50253 -6.41475,-0.07387 -3.47909,3.672861 -7.39225,4.476591 -11.501992,2.362413 -2.085603,-1.072892 -2.217756,-1.100984 -3.529305,-0.750197 -0.749412,0.200436 -1.671129,0.364431 -2.048262,0.364431 -2.041056,0 -1.909806,2.935533 0.188451,4.214931 0.694374,0.42339 0.80403,0.583134 0.400854,0.583947 -0.853791,0.0018 -2.595,-1.902936 -2.595,-2.8386 0,-2.292696 -2.998875,-3.724536 -4.834542,-2.308293 -0.851073,0.656613 -2.50593,1.25637 -3.385224,1.226877 -0.41355,-0.01386 -0.222234,-0.170532 0.556443,-0.455649 2.424696,-0.88782 3.081201,-2.153301 1.944924,-3.749052 -0.340119,-0.477654 -0.687087,-1.375992 -0.771039,-1.996311 -0.152643,-1.12785 -0.152643,-1.12785 0.421509,0.07215 1.518903,3.174582 4.864362,4.616316 9.067929,3.907851 1.981701,-0.333996 2.333997,-0.613872 2.816067,-2.237175 0.495096,-1.667169 1.218087,-2.892843 1.849284,-3.135054 0.260604,-0.100005 0.11931,0.30375 -0.359493,1.027272 -2.687679,4.061355 1.51179,7.694712 7.047966,6.097866 3.04102,-0.877149 6.00789,-4.61076 3.66388,-4.61076 -0.48526,0 -0.95094,-0.111063 -1.03483,-0.246807 -0.0839,-0.135744 0.88689,-0.248634 2.1573,-0.250866 2.83724,-0.005 4.53571,-0.688785 6.15052,-2.476191 3.08421,-3.413853 2.79834,-8.596932 -0.35049,-6.354762 -2.18396,1.555116 -6.59629,1.970727 -9.0402,0.851526 -1.05,-0.480852 -1.05,-0.480852 0,-0.276876 7.71322,1.498389 13.25865,-3.267186 11.89364,-10.221024 -0.29624,-1.509123 9e-4,-1.420416 0.69936,0.208683 0.50161,1.170198 0.73014,1.372638 1.86434,1.651479 0.71096,0.174789 1.88214,0.614241 2.60263,0.97656 1.60687,0.808068 2.14003,0.364938 2.14003,-1.778697 0,-2.7363 -1.27745,-4.322943 -3.69989,-4.595415 -1.55011,-0.174357 -1.55011,-0.174357 -0.39174,-0.42063 0.84848,-0.180393 1.42287,-0.12015 2.14704,0.225186 1.20264,0.573501 1.46912,0.03259 1.059,-2.149614 -0.53089,-2.824831 -1.97525,-3.850552 -3.3586,-2.385139 -1.25551,1.329979 -3.02539,1.732288 -4.42861,1.006657 -1.186,-0.613305 -1.19193,-0.825142 -0.0116,-0.413672 0.71755,0.250139 1.19836,0.211207 2.22264,-0.179966 3.85225,-1.471191 2.41944,-7.90399 -1.88923,-8.481904 -0.973,-0.130506 -1.24903,-0.294691 -1.24903,-0.742927 0,-1.638497 -1.61384,-3.329003 -3.04694,-3.191702 -1.00306,0.0961 -1.00306,0.0961 -1.18433,2.196101 -0.37617,4.358112 1.53625,6.259791 4.97888,4.950907 0.44146,-0.167842 0.71197,-0.17821 0.61643,-0.02363 -0.54645,0.884177 -2.84348,1.31209 -4.22043,0.786225 -1.93104,-0.737472 -2.28454,-1.574405 -2.19646,-5.200358 0.0813,-3.347894 -0.36647,-4.519226 -2.02931,-5.308299 -2.05404,-0.974705 -4.77296,-0.362806 -4.41807,0.994296 0.22048,0.843118 -0.57192,2.416029 -2.11642,4.20107 -2.703798,3.124889 -2.02473,5.810795 1.22913,4.861567 4.05064,-1.181668 5.55191,-0.642606 6.65111,2.388219 0.42811,1.180445 0.70264,1.45165 2.18579,2.159333 4.81806,2.298937 4.83874,7.540408 0.0437,11.082694 -1.08884,0.804372 -1.83933,1.637076 -2.15656,2.392791 -0.51585,1.228884 -0.97918,1.565433 -0.78793,0.572325 0.46953,-2.438088 -4.77844,-2.359938 -7.43773,0.110757 -5.078038,4.717911 -0.29178,11.801232 5.87408,8.69322 1.36244,-0.686763 1.49488,-0.710418 1.02316,-0.182742 -0.45891,0.513348 -1.50588,1.111419 -3.79039,2.165238 -0.23774,0.109668 -0.77774,0.831351 -1.2,1.60374 -0.80795,1.477899 -1.47943,2.080482 -2.71774,2.43891 -0.59349,0.171783 -0.5168,0.05381 0.36751,-0.565314 2.06555,-1.446156 2.41885,-3.42003 0.75749,-4.232157 -0.53625,-0.262137 -1.5825,-1.138629 -2.325002,-1.947759 -1.329954,-1.449303 -1.36782,-1.466949 -2.55,-1.188249 -1.587117,0.374163 -3.45,0.372657 -3.45,-0.0027 0,-0.165 0.477879,-0.3 1.061952,-0.3 1.981497,0 3.264264,-0.943872 3.990798,-2.936463 1.645662,-4.513386 5.141092,-6.74988 9.549702,-6.11022 1.70177,0.246918 4.96816,-1.981779 5.95625,-4.064031 2.08576,-4.395405 -1.9916,-8.756446 -5.61072,-6.001092 -2.09566,1.595493 -2.27114,1.617438 -0.95734,0.119721 3.36021,-3.830607 1.01203,-7.043165 -3.92298,-5.367046 -2.38233,0.809047 -2.38233,0.809047 -2.8294,2.44148 -0.44392,1.620966 -2.736305,4.517567 -3.575219,4.517567 -0.190989,0 0.239316,-0.586569 0.956235,-1.303491 1.539924,-1.539924 2.095664,-3.000422 1.878154,-4.935821 -0.0872,-0.775878 -0.24809,-2.153188 -0.357535,-3.060688 -0.197865,-1.640597 -0.1902,-1.661381 1.344875,-3.64703 2.78939,-3.60814 2.08262,-6.81726 -1.524017,-6.919805 -1.259028,-0.0358 -1.465512,0.312422 -1.106982,1.866835 0.814029,3.52925 -3.094335,7.853514 -7.040028,7.789177 -0.374883,-0.0061 0.04525,-0.265797 0.965367,-0.5967 5.111853,-1.838374 7.050012,-7.147492 3.316713,-9.085334 -2.981301,-1.547501 -10.795827,0.691254 -10.795827,3.092857 0,2.200976 5.813943,2.781576 7.500786,0.749053 0.204975,-0.246979 0.514683,-0.449053 0.688242,-0.449053 0.173559,0 0.0018,0.334103 -0.381936,0.74245 -0.751917,0.800381 -2.005674,1.311872 -5.175723,2.111526 -7.137318,1.800407 -4.088367,11.244076 3.303132,10.230958 2.375325,-0.325574 3.45228,-1.238224 4.643346,-3.934934 0.530007,-1.2 0.530007,-1.2 0.343464,-0.15 -0.478482,2.693254 -1.964112,4.003573 -5.440224,4.798252 -3.394341,0.775985 -4.048533,2.806067 -2.481087,7.699307 1.031826,3.221148 1.06686,3.622359 0.446061,5.108139 -0.590367,1.412946 -0.792933,1.182213 -0.366084,-0.416985 0.301212,-1.128495 0.235488,-1.548192 -0.647364,-4.133859 -1.088457,-3.187842 -1.204329,-4.718163 -0.529338,-6.991101 0.837072,-2.818726 -0.596724,-2.912729 -1.94502,-0.127521 -0.85002,1.755909 -2.402793,3.48516 -3.559836,3.964422 -0.895104,0.370764 -0.895104,0.370764 0.368076,1.491741 1.263183,1.120974 1.263183,1.120974 1.439325,4.843431 0.252753,5.34153 1.454694,7.176045 4.689519,7.157586 5.672625,-0.03237 8.437545,-7.949055 4.731117,-13.546422 -1.057485,-1.59699 -1.057485,-1.59699 0.112347,-0.334884 0.982563,1.060065 1.677984,2.409012 2.327865,4.515489 0.376872,1.221567 3.099867,1.166694 4.596486,-0.09263 0.84901,-0.71439 0.88453,-0.848622 0.98383,-3.71694 0.11705,-3.381066 0.49213,-4.172085 2.53122,-5.338092 1.66865,-0.954177 1.92918,-0.837387 0.47763,0.214111 -2.97451,2.154722 -3.24367,5.585594 -0.56627,7.218098 1.74809,1.065873 3.91957,0.605508 6.08805,-1.290699 1.45401,-1.271443 1.45401,-1.271443 0.84881,-0.225595 -1.18597,2.049471 -2.81498,2.854152 -5.77797,2.854152 -2.30907,0 -2.75379,0.09308 -3.99327,0.835815 -0.76714,0.459696 -2.152846,0.959187 -3.079339,1.109979 -2.167137,0.35271 -2.158896,0.345972 -2.377953,1.944162 -0.343146,2.503539 -1.908876,4.869534 -4.172892,6.305712 -1.450422,0.920073 -0.604815,3.999837 1.446285,5.267487 1.343853,0.830547 1.307898,1.011546 -0.0853,0.429429 -1.504653,-0.628683 -2.009415,-1.133733 -2.624988,-2.626476 -0.28716,-0.69636 -0.618651,-1.459617 -0.736647,-1.696131 -0.117993,-0.236511 -0.985128,-0.641511 -1.926969,-0.9 -3.295653,-0.904491 -4.092981,-2.374401 -4.095702,-7.550613 -0.0024,-4.500978 -1.047171,-5.954955 -4.28631,-5.964942 -3.871614,-0.01194 -5.847693,2.635533 -5.543277,7.426653 0.125868,1.98099 0.09452,2.142552 -0.341754,1.761177 -1.815548,-1.587108 -4.801721,-1.882461 -6.298544,-0.622968 -2.891377,2.432934 -0.656118,7.930716 3.22443,7.930716 1.288773,0 2.319381,0.538356 2.721927,1.42185 0.445275,0.977274 0.261906,1.140654 -0.426486,0.379989 -1.07901,-1.192293 -3.151665,-0.575487 -3.151665,0.937908 0,0.850587 2.061018,5.262939 2.830764,6.06027 0.478428,0.495573 3.585501,5.51448 4.302552,6.949983 1.06818,2.138445 2.43777,6.384645 3.059223,9.484647 0.710529,3.544326 1.474527,5.433375 2.458092,6.077829 2.568261,1.682789 14.270619,2.527269 21.549373,1.555079 z M 41.761411,63.339503 c -0.425748,-0.505974 -0.98199,-1.635108 -1.236093,-2.509188 -0.462003,-1.589238 -0.462003,-1.589238 -2.287278,-1.754748 -1.003902,-0.09103 -1.97841,-0.322401 -2.165577,-0.514158 -0.257802,-0.264123 -0.06804,-0.298617 0.782727,-0.142284 2.898663,0.532644 5.381214,-2.029326 5.445957,-5.620176 0.04493,-2.492211 -0.699798,-3.21162 -2.77428,-2.679945 -2.958129,0.758145 -4.931025,0.360828 -5.743128,-1.156602 -0.283845,-0.53037 -0.196587,-0.513618 0.781308,0.15 2.672364,1.813515 6.698055,-0.03982 7.63365,-3.514359 0.298068,-1.106937 0.246648,-2.166882 -0.193491,-3.98859 -0.09689,-0.401028 0.0094,-0.329706 0.320373,0.21507 0.784707,1.374465 0.900981,3.37176 0.309936,5.323857 -0.528315,1.744902 -0.527196,1.7691 0.145962,3.159657 0.875754,1.809072 0.68052,3.775857 -0.631674,6.363459 -1.347213,2.656656 -1.198233,5.201874 0.404637,6.912957 0.347769,0.37125 0.485778,0.675 0.306684,0.675 -0.179094,0 -0.673965,-0.413979 -1.099713,-0.91995 z M 36.47029,38.782721 c 0.611889,-1.199403 2.775498,-3.322554 3.387735,-3.32439 0.205776,-6e-4 -0.05806,-0.264645 -0.586299,-0.586734 -1.274004,-0.776802 -1.897833,-2.064201 -1.852137,-3.822246 0.03742,-1.439898 0.03742,-1.439898 0.275697,0.204615 0.774591,5.346111 8.432781,5.007486 10.294098,-0.455178 0.636726,-1.868689 0.620988,-2.602262 -0.10275,-4.789335 -0.327606,-0.99 -0.667707,-2.17125 -0.755775,-2.625 -0.204297,-1.052557 -1.289463,-1.103551 -2.989827,-0.140497 -2.531325,1.433697 -3.437481,4.300773 -2.169231,6.863443 0.73563,1.486437 0.73563,1.486437 0.02253,0.816522 -0.800685,-0.752202 -1.308006,-2.269424 -1.310505,-3.919252 -0.0021,-1.359427 -0.538509,-1.595211 -2.591685,-1.139114 -3.918825,0.870536 -6.093543,4.607157 -4.643523,7.978542 0.605241,1.407225 0.60666,1.437453 0.03581,0.761958 -0.980451,-1.160169 -1.254003,-2.716413 -0.791139,-4.500801 0.507303,-1.955708 0.206349,-2.179508 -1.415757,-1.052803 -1.329162,0.923225 -2.5965,3.022132 -2.593702,4.295569 0.005,2.27757 2.058169,5.411433 3.545329,5.411433 0.339672,0 0.709944,0.149436 0.822825,0.332079 0.143916,0.232863 -0.09728,0.266883 -0.807294,0.113868 -1.602144,-0.345276 -2.616739,-0.983532 -3.341001,-2.101731 -0.859844,-1.327527 -1.00276,-1.307415 -1.239722,0.174465 -0.532127,3.327738 1.286339,5.671542 4.424267,5.702406 1.179159,0.01158 2.413923,0.12732 2.743923,0.257166 0.546156,0.214896 0.621075,0.07559 0.834855,-1.552356 0.129171,-0.983637 0.490644,-2.289822 0.803274,-2.902629 z M 35.132161,26.297129 c 1.173498,-0.881417 3.463791,-1.637676 4.959621,-1.637676 0.923196,0 1.440081,-0.223919 2.314515,-1.002671 0.619224,-0.551469 1.979736,-1.453173 3.023358,-2.003787 3.864414,-2.038861 4.768284,-4.70726 1.987995,-5.868939 -2.310909,-0.965559 -5.217891,-0.170772 -7.416333,2.02767 -2.150634,2.150635 -1.219881,2.548095 2.612964,1.115812 0.815163,-0.304616 1.536996,-0.498969 1.60407,-0.431895 0.226146,0.226146 -2.165187,1.264178 -5.561745,2.414245 -2.372883,0.803454 -3.74343,1.457846 -4.614036,2.203051 -3.163848,2.708137 -2.164569,5.628398 1.089591,3.18419 z m 11.7,80.048401 c -0.917634,-0.22072 -1.144485,-0.56879 -0.929349,-1.42595 0.196311,-0.78216 0.198573,-0.7827 1.088034,-0.25728 0.797835,0.47129 1.33239,1.96537 0.666315,1.86235 -0.12375,-0.0191 -0.495,-0.0997 -0.825,-0.17912 z m 24.150004,-0.93379 c 0,-0.56058 1.37846,-2.07383 1.64569,-1.8066 0.59218,0.59219 0.4688,1.98081 -0.19171,2.15764 -1.14008,0.30523 -1.45398,0.22944 -1.45398,-0.35104 z m -28.594954,-0.40763 c -0.464724,-0.16938 -0.785838,-0.46247 -0.713589,-0.65131 0.07225,-0.18884 0.382914,-1.0521 0.690366,-1.91835 0.65088,-1.83386 0.698178,-1.8552 1.552125,-0.70018 0.626829,0.84784 0.242481,3.68931 -0.487152,3.6015 -0.10824,-0.013 -0.577029,-0.16227 -1.04175,-0.33165 z m 32.326804,-1.60043 c -0.52261,-1.36843 0.12049,-4.234522 0.79188,-3.529182 0.25908,0.272172 1.81207,4.056872 1.70077,4.144812 -0.30208,0.23868 -1.4403,0.74014 -1.67997,0.74014 -0.1622,0 -0.52791,-0.6101 -0.81268,-1.35577 z m -36.208504,0.0654 c -1.004448,-0.39682 -1.049976,-0.22364 1.439424,-5.475162 2.228982,-4.70215 2.06736,-4.54066 2.160603,-2.15883 0.06871,1.75506 -2.005941,8.109852 -2.609304,7.992492 -0.09024,-0.0175 -0.536067,-0.17888 -0.990723,-0.3585 z m 39.140094,-3.584632 c -1.48466,-3.19591 -2.35919,-7.74559 -1.28017,-6.66 0.25156,0.2531 4.81673,8.786942 4.81673,9.004102 0,0.0706 -1.79823,1.0309 -1.93044,1.0309 -0.021,0 -0.7438,-1.51875 -1.60612,-3.375002 z m -42.746478,1.683892 c -1.126236,-0.5901 -1.241175,-0.29374 2.901816,-7.482022 3.718782,-6.45225 3.718782,-6.45225 3.841356,-5.01456 0.111306,1.30552 -0.07003,1.81003 -1.972467,5.48769 -4.034745,7.799712 -3.831438,7.501022 -4.770705,7.008892 z m 46.442848,-3.258892 c -0.9129,-1.5675 -2.40231,-4.12499 -3.30981,-5.68332 -1.55423,-2.66887 -2.25027,-5.26668 -1.41113,-5.26668 0.13138,0 2.04339,2.85157 4.24892,6.33681 4.01005,6.336812 4.01005,6.336812 3.28613,6.893322 -1.0423,0.80128 -0.99918,0.83622 -2.81411,-2.280132 z m -50.334814,0.93239 c -0.791274,-0.60066 -0.843258,-0.50414 3.982983,-7.39548 4.894542,-6.988869 4.778478,-6.85785 5.314644,-5.99931 0.325278,0.52084 -0.122511,1.35568 -3.862362,7.20078 -4.266237,6.6678 -4.484085,6.91606 -5.435265,6.19401 z m 51.129374,-6.6978 c -3.49106,-5.02204 -4.26159,-6.31501 -4.11393,-6.90332 0.29162,-1.161925 0.63674,-0.81172 5.66878,5.75239 4.7854,6.24239 4.7854,6.24239 4.06309,6.79769 -1.11353,0.85608 -1.06032,0.90956 -5.61794,-5.64676 z m -54.304168,4.23681 c -0.375759,-0.26319 -0.642025,-0.66856 -0.591702,-0.90083 0.108734,-0.50186 11.048222,-13.620565 11.357984,-13.620565 0.974703,0 0.411525,1.524654 -1.491858,4.038805 -8.791975,11.61316 -8.358999,11.12378 -9.274424,10.48259 z m 56.688698,-7.07245 c -4.82093,-5.756453 -5.4755,-6.662297 -5.30503,-7.341497 0.25081,-0.999306 -0.0116,-1.23927 6.87604,6.287117 6.26909,6.85045 5.83462,6.21181 4.76425,7.00316 -0.83576,0.61791 -0.83576,0.61791 -6.33526,-5.94878 z m -60.048746,4.09058 c -0.714431,-0.76048 -0.714431,-0.76048 6.320312,-7.8 7.388514,-7.393537 7.583685,-7.555672 7.433538,-6.17524 -0.08216,0.755388 -12.211822,14.62526 -12.866714,14.71266 -0.09499,0.0127 -0.494199,-0.31916 -0.887136,-0.73742 z m 62.017666,-7.28166 c -5.96988,-5.974114 -6.80234,-6.920434 -6.5908,-7.492288 0.21615,-0.584295 7.97483,6.066738 14.47421,12.407828 0.38731,0.37787 0.35007,0.52165 -0.30463,1.17635 -0.74587,0.74587 -0.74587,0.74587 -7.57878,-6.09189 z m -64.923039,4.19265 c -0.62805,-0.84948 -0.62805,-0.84948 7.311765,-7.51639 8.557561,-7.185621 8.906512,-7.435476 8.75236,-6.266832 -0.08146,0.617553 -14.756946,14.632702 -15.322136,14.632702 -0.06267,0 -0.396561,-0.38226 -0.741989,-0.84948 z m 67.511269,-6.383614 c -9.0829,-7.606305 -8.77816,-7.32054 -8.58684,-8.052132 0.21388,-0.817869 -0.59064,-1.34682 8.253,5.426154 9.71452,7.439942 8.84929,6.641602 8.22716,7.591082 -0.72214,1.10213 -0.42529,1.28886 -7.89332,-4.965104 z m -70.071054,3.192244 c -0.770691,-1.0599 -0.870321,-0.9525 4.04395,-4.359145 2.499227,-1.7325 6.556366,-4.554849 9.015866,-6.271887 4.202697,-2.934012 5.401965,-3.437754 4.935306,-2.073042 -0.0669,0.195663 -17.231644,13.455094 -17.39266,13.435504 -0.0426,-0.005 -0.313712,-0.33433 -0.602462,-0.73143 z m 71.472264,-6.474103 c -9.33464,-6.513807 -9.47281,-6.62463 -9.09701,-7.296153 0.22317,-0.398784 1.74915,0.464964 9.25848,5.240577 10.572135,6.723409 9.581645,5.934649 8.754691,6.971729 -0.668891,0.83888 -0.668891,0.83888 -8.916161,-4.916153 z m -73.890662,2.729991 c -0.52977,-0.896829 -0.52977,-0.896829 1.056814,-1.800258 0.872621,-0.496887 5.299084,-3.053814 9.836584,-5.682063 7.586169,-4.394121 9.081915,-5.060682 8.612799,-3.838188 -0.136971,0.356946 -17.653611,11.709726 -18.667953,12.098967 -0.169661,0.0651 -0.546871,-0.285201 -0.838244,-0.778458 z m 79.143402,-3.634098 c -2.805,-1.63854 -7.02375,-4.083726 -9.375,-5.433747 -3.99035,-2.291142 -4.73385,-2.928195 -3.96912,-3.400824 0.16824,-0.103977 2.56449,0.984624 5.325,2.419107 2.76051,1.434486 7.11162,3.693828 9.66912,5.020761 2.557501,1.32693 4.696905,2.448519 4.754235,2.492415 0.14511,0.111117 -0.94672,1.925943 -1.14391,1.901403 -0.0882,-0.01098 -2.455325,-1.360575 -5.260325,-2.999115 z m -81.153989,0.0095 c -0.487648,-1.17729 -1.448684,-0.607677 10.123584,-6.000291 8.303476,-3.869373 10.176583,-4.640598 10.386487,-4.276488 0.393831,0.683157 1.161789,0.233769 -12.648405,7.401537 -8.471327,4.396788 -7.394542,4.002978 -7.861666,2.875242 z M 92.904995,74.66764 c -9.29094,-4.35372 -10.55662,-5.083761 -9.51007,-5.485359 0.33924,-0.130179 19.903535,7.627377 20.534365,8.142204 0.16498,0.13464 -0.84913,1.936059 -1.07982,1.918155 -0.11952,-0.0093 -4.594535,-2.068026 -9.944475,-4.575 z M 13.25323,76.893545 c -0.95547,-1.545984 -0.837416,-1.756746 1.419653,-2.534514 1.187603,-0.409239 5.871778,-2.106228 10.409278,-3.771093 8.912775,-3.270204 8.849838,-3.252513 9.114852,-2.561901 0.125403,0.326796 -0.112146,0.588012 -0.792903,0.871893 -5.446406,2.271204 -17.476063,7.244805 -18.584888,7.683828 -0.777116,0.307686 -1.481812,0.44799 -1.565992,0.311787 z m 85.178935,-3.755529 c -3.3,-1.20873 -7.8225,-2.864763 -10.05,-3.680076 -2.62046,-0.959142 -4.05,-1.633791 -4.05,-1.911327 0,-0.940815 0.43393,-0.827916 16.692735,4.343091 4.39272,1.397079 4.39272,1.397079 4.07466,2.433414 -0.38918,1.268073 0.42543,1.412865 -6.667395,-1.185102 z M 11.736998,72.584453 c -0.377071,-1.119285 -0.274427,-1.522284 0.445163,-1.7478 3.486337,-1.092603 20.177367,-5.364795 20.406486,-5.223192 0.475092,0.293625 0.336438,0.992391 -0.231486,1.166604 -0.28875,0.08857 -4.837339,1.515171 -10.107975,3.170217 -10.108889,3.174315 -10.312992,3.225459 -10.512188,2.634171 z m 89.695172,-2.472387 c -1.980004,-0.542244 -6.232505,-1.688994 -9.450005,-2.548335 -6.77229,-1.80876 -6.68515,-1.774179 -6.18637,-2.454864 0.38554,-0.526146 0.1272,-0.57516 17.811375,3.379305 2.87216,0.642261 3.11158,0.8451 2.5929,2.196744 -0.239,0.622836 -0.52917,0.587973 -4.7679,-0.57285 z M 10.605162,68.107577 c -0.199604,-1.311705 -1.1067957,-1.027866 9.146808,-2.861808 11.848663,-2.11923 11.493202,-2.076021 11.742136,-1.427307 0.267849,0.698001 1.239426,0.415212 -9.711945,2.826777 -5.3625,1.18086 -10.0369,2.217543 -10.387556,2.303739 -0.535076,0.131532 -0.66197,-0.0037 -0.789443,-0.841401 z m 94.427008,-1.312026 c -0.165,-0.06409 -1.8525,-0.383535 -3.75,-0.709872 -15.278895,-2.627691 -14.486645,-2.451396 -14.213625,-3.162852 0.26308,-0.685593 2.3852,-0.497244 15.410605,1.367775 5.07568,0.72675 4.73895,0.597363 4.56895,1.755642 -0.13059,0.889761 -0.90926,1.179189 -2.01593,0.749307 z M 10.028095,63.834053 c -0.1439377,-1.232934 -0.8041933,-1.094454 9.354066,-1.961895 3.8775,-0.33111 7.753687,-0.672507 8.61375,-0.758661 1.35264,-0.135495 1.607516,-0.07486 1.887936,0.449109 0.371739,0.694602 0.228537,0.780969 -1.651686,0.996135 -3.69967,0.423381 -11.817611,1.460232 -14.484082,1.849953 -1.696245,0.247917 -3.200225,0.450759 -3.342178,0.450759 -0.141953,0 -0.311966,-0.46143 -0.377806,-1.0254 z m 90.804075,-1.54002 c -2.145005,-0.213591 -5.782905,-0.537894 -8.084225,-0.720675 -4.67813,-0.371559 -4.67811,-0.37155 -3.90794,-1.222569 0.50715,-0.5604 0.79752,-0.598104 3.42316,-0.444468 3.96799,0.232179 14.154915,0.749712 14.794005,0.75159 0.39971,0.0012 0.525,0.252129 0.525,1.051542 0,1.240983 -0.0845,1.248303 -6.75,0.58458 z M 9.7821613,59.609453 c 0,-1.05 0,-1.05 6.2249997,-1.09452 11.057542,-0.07908 13.577129,0.142389 12.611024,1.108497 -0.140082,0.140082 -15.19155,0.99195 -18.161024,1.02786 -0.5729827,0.0069 -0.6749997,-0.150531 -0.6749997,-1.041837 z M 90.182165,58.316792 c 0,-1.229277 0.56448,-1.311714 11.925005,-1.741563 5.475,-0.207156 5.475,-0.207156 5.475,0.888534 0,1.09569 0,1.09569 -8.700005,1.09569 -4.785,0 -8.7,-0.109197 -8.7,-0.242661 z M 22.832161,56.994686 c -1.98,-0.123063 -5.72625,-0.308046 -8.325,-0.411078 -4.7249997,-0.187326 -4.7249997,-0.187326 -4.7249997,-1.065156 0,-1.290795 0.2336897,-1.306755 8.6537107,-0.590934 9.032271,0.767868 9.046289,0.770196 9.046289,1.502661 0,0.762768 -0.494414,0.822789 -4.65,0.564507 z m 69.017054,-2.110233 c 0.11411,-0.37125 0.23844,-0.711483 0.27629,-0.756072 0.12459,-0.146805 13.184615,-1.867071 14.181665,-1.86801 0.91446,-9e-4 0.975,0.06428 0.975,1.049082 0,0.888486 -0.10383,1.05021 -0.675,1.051359 -0.37125,6e-4 -3.5775,0.268575 -7.125004,0.595173 -8.277101,0.762024 -7.890291,0.765651 -7.632951,-0.07153 z M 18.182161,53.271704 c -8.6638667,-1.196208 -8.038595,-1.02261 -7.868071,-2.184462 0.172528,-1.175508 -0.158475,-1.187097 7.946991,0.278208 5.743582,1.038321 6.743145,1.299009 7.189409,1.875 0.552708,0.713376 0.674161,1.1421 0.306671,1.082532 -0.12375,-0.02007 -3.5325,-0.493134 -7.575,-1.051278 z m 74.700004,-1.064271 c 0,-0.758937 1.02117,-1.703172 2.03939,-1.885731 0.61083,-0.109518 3.2926,-0.682281 5.959495,-1.272807 5.27439,-1.167897 5.80112,-1.153626 5.80112,0.157176 0,0.834903 -0.0715,0.877443 -2.025,1.205205 -1.11375,0.186864 -4.21875,0.727989 -6.900005,1.202499 -2.68125,0.474513 -4.875,0.741657 -4.875,0.593658 z M 19.682161,49.977248 c -9.554891,-2.171013 -8.765634,-1.913964 -8.550738,-2.784852 0.106258,-0.43062 0.293177,-0.885726 0.415376,-1.011351 0.331699,-0.341001 11.820271,2.773956 12.260362,3.324213 1.12845,1.410933 0.382863,1.496244 -4.125,0.47199 z m 74.573494,-1.804851 c 0.28364,-1.200018 0.0323,-1.075467 5.643221,-2.795934 5.208214,-1.596969 5.407564,-1.607235 5.731244,-0.29517 0.19041,0.77184 0.19041,0.77184 -5.30377,2.22435 -3.021805,0.798882 -5.669795,1.51488 -5.884425,1.591107 -0.28993,0.102966 -0.33781,-0.08323 -0.18627,-0.724353 z M 17.605281,45.699326 c -5.461175,-1.777407 -5.622987,-1.875123 -5.152843,-3.111696 0.289981,-0.762708 0.289981,-0.762708 5.634852,1.175853 5.888454,2.135715 5.94066,2.16402 5.654456,3.065772 -0.258157,0.813378 -0.04491,0.852645 -6.136465,-1.129929 z m 76.832874,-1.269465 c 0.10251,-1.013712 -0.30595,-0.789522 6.496355,-3.565602 2.80234,-1.143657 2.80234,-1.143657 3.20037,-0.199233 0.49053,1.163904 0.82838,0.955563 -4.952745,3.054171 -5.32718,1.933827 -4.86061,1.863933 -4.74398,0.710664 z M 18.782161,42.145982 c -5.357674,-2.231193 -5.217487,-2.138454 -4.818573,-3.187677 0.400493,-1.053378 0.278315,-1.079793 4.953555,1.070889 3.706952,1.705257 4.093565,1.957749 4.394669,2.870103 0.453105,1.37292 0.657687,1.406943 -4.529651,-0.753315 z m 75.861664,-1.637271 c 0.18276,-0.932673 5.721115,-4.386648 7.115185,-4.437366 0.27391,-0.01 1.02316,1.201326 1.02316,1.654104 0,0.18282 -6.854435,3.411132 -7.685435,3.619701 -0.59355,0.148971 -0.63207,0.07784 -0.45291,-0.836439 z M 18.713639,37.916927 c -3.373972,-1.789944 -3.556935,-1.994787 -2.706478,-3.030147 0.804919,-0.979926 6.471844,2.271552 6.619007,3.797745 0.125686,1.303452 -0.08753,1.26162 -3.912529,-0.767598 z m 75.918516,-0.928968 c -0.0275,-0.345678 -0.0613,-0.831483 -0.075,-1.079568 -0.014,-0.252105 1.09978,-1.172694 2.52501,-2.087094 2.550001,-1.636032 2.550001,-1.636032 3.068335,-0.973938 0.79794,1.019262 0.66342,1.280979 -1.193335,2.321619 -0.94875,0.531741 -2.29875,1.299957 -3,1.707144 -1.26297,0.733356 -1.27548,0.734412 -1.32501,0.111837 z M 20.282161,34.251632 c -1.2375,-0.814155 -2.369094,-1.522656 -2.514653,-1.574448 -0.145559,-0.05179 -0.03639,-0.535578 0.242598,-1.075083 0.278989,-0.539502 0.600583,-0.938556 0.714654,-0.886782 1.283633,0.582606 4.557401,3.142494 4.557401,3.563613 0,1.789938 -0.241159,1.787745 -3,-0.0273 z M 93.539045,32.54828 c 0.13953,-1.665078 3.2199,-4.074323 4.14216,-3.239694 0.9481,0.858024 0.74273,1.235676 -1.54609,2.843052 -2.56784,1.803327 -2.71583,1.825935 -2.59607,0.396642 z M 21.782161,30.471701 c -2.002224,-1.564507 -1.983469,-1.528283 -1.214848,-2.346443 0.764973,-0.814277 0.778211,-0.810288 2.689549,0.810498 0.846472,0.717795 0.939196,0.932005 0.706115,1.631249 -0.373431,1.120293 -0.640026,1.108644 -2.180816,-0.0953 z m 70.972844,-2.168072 c -0.76351,-1.476464 1.29195,-3.215745 2.44164,-2.066057 0.805,0.805005 0.805,0.805005 -0.37974,1.850955 -1.44625,1.276822 -1.50945,1.283415 -2.0619,0.215102 z m -68.967082,-1.48707 c -1.116006,-1.142894 -1.116006,-1.142894 -0.351755,-1.860871 1.148132,-1.078613 3.292243,0.932206 2.359075,2.212419 -0.721676,0.990066 -0.692233,0.995223 -2.00732,-0.351548 z m 66.890732,-1.805728 c -1.24126,-1.371582 0.22324,-3.068011 1.52488,-1.766368 0.7986,0.798606 0.7986,0.798606 0.0863,1.556798 -0.85,0.904788 -0.96813,0.920152 -1.6112,0.20957 z M 26.148583,23.39186 c -0.436631,-0.623378 -0.41816,-0.717033 0.278898,-1.414091 1.035664,-1.035663 1.571819,-0.511402 1.024609,1.00188 -0.454513,1.256934 -0.665178,1.323553 -1.303507,0.412211 z m 62.447192,-2.678456 c -0.53639,-0.942255 -0.53639,-0.942255 0.15,-0.487259 0.37751,0.250247 0.73004,0.675116 0.78338,0.944152 0.15964,0.805068 -0.35972,0.550838 -0.93338,-0.456893 z M 29.540396,19.549472 c 0.389531,-0.32451 0.846485,-0.590019 1.015457,-0.590019 0.168972,0 -0.03603,0.27 -0.455553,0.6 -0.985844,0.775465 -1.491893,0.766444 -0.559904,-0.01 z"
     style="fill:#000000" />
</svg>
